<!-- icon666.com - MILLIONS vector ICONS FREE --><svg id="svg8" viewBox="0 0 25.399999 25.399999" xmlns="http://www.w3.org/2000/svg" xmlns:svg="http://www.w3.org/2000/svg"><g id="layer2"><path id="path834" d="m47.996094 6.0019531c-12.126577-.0000004-21.998047 9.8714719-21.998047 21.9980469-.000001 12.126576 9.87147 21.998047 21.998047 21.998047 12.126573-.000004 22.005859-9.871471 22.005859-21.998047 0-12.126574-9.879286-21.9980457-22.005859-21.9980469zm-18.556641 40.1464849c-10.9454 1.269256-19.4375 10.56674-19.4375 21.853515v11.996094c0 3.444442 1.248582 6.145305 3.21875 7.787109 1.970169 1.641808 4.444011 2.214844 6.777344 2.214844h55.998047c2.333333 0 4.814986-.573036 6.785156-2.214844 1.97017-1.641804 3.216797-4.342667 3.216797-7.787109v-11.996094c0-11.288763-8.493454-20.586866-19.441406-21.853515-4.731077 4.83381-11.313262 7.849609-18.560547 7.849609-7.247399.000002-13.82742-3.015669-18.556641-7.849609z" fill-rule="evenodd" transform="scale(.265)" paint-order="stroke fill markers"></path></g></svg>